<svg width="300" height="300" viewBox="0 0 300 300" fill="none" xmlns="http://www.w3.org/2000/svg">
<rect width="300" height="300" rx="150" fill="#46367D"/>
<path d="M235.147 127.008C234.824 126.81 210.379 111.484 209.259 110.843V77.9296C209.259 74.3925 206.391 71.5242 202.854 71.5242H97.1496C93.6125 71.5242 90.7441 74.3929 90.7441 77.9296V110.84C89.0777 111.841 71.3258 122.955 64.9262 126.95C64.9141 126.959 64.9047 126.968 64.8957 126.975C63.257 127.945 61.9172 130.081 61.9172 132.373C61.9172 132.376 61.9141 132.379 61.9141 132.382V222.07C62.4113 226.453 65.207 228.476 68.3227 228.476H231.68C235.281 228.476 238.086 225.381 238.086 222.07V132.382C238.052 130.234 236.759 128 235.147 127.008V127.008ZM209.259 125.921L219.788 132.504L209.259 139.389V125.921ZM103.555 148.398V84.3351H196.448V147.766L148.468 179.135L103.538 148.584C103.54 148.52 103.555 148.462 103.555 148.398V148.398ZM90.7441 125.925V139.883L80.0445 132.611L90.7441 125.925V125.925ZM74.7285 144.485L118.53 174.271L74.7285 208.85V144.485V144.485ZM86.7766 215.665L129.639 181.824L144.797 192.136C145.883 192.874 147.141 193.243 148.401 193.243C149.619 193.243 150.839 192.895 151.908 192.196L169.8 180.499L213.502 215.664H86.7766V215.665ZM225.275 208.694L181.073 173.129L225.275 144.226V208.694Z" fill="white"/>
</svg>
